<svg width="11.666504" height="9.333496" viewBox="0 0 11.6665 9.3335" fill="none" xmlns="http://www.w3.org/2000/svg" xmlns:xlink="http://www.w3.org/1999/xlink">
	<desc>
			Created with Pixso.
	</desc>
	<defs/>
	<path id="Vector" d="M11.39 1.45C11.66 2.49 11.66 4.66 11.66 4.66C11.66 4.66 11.66 6.83 11.39 7.87C11.25 8.45 10.81 8.9 10.26 9.05C9.27 9.33 5.83 9.33 5.83 9.33C5.83 9.33 2.39 9.33 1.39 9.05C0.84 8.9 0.41 8.44 0.26 7.87C0 6.83 0 4.66 0 4.66C0 4.66 0 2.49 0.26 1.45C0.41 0.88 0.84 0.43 1.39 0.27C2.39 0 5.83 0 5.83 0C5.83 0 9.27 0 10.26 0.27C10.82 0.43 11.25 0.88 11.39 1.45ZM4.66 6.7L8.16 4.66L4.66 2.62L4.66 6.7Z" fill="#2B2B2B" fill-opacity="1.000000" fill-rule="nonzero"/>
</svg>
