<svg width="11.118164" height="10.500488" viewBox="0 0 11.1182 10.5005" fill="none" xmlns="http://www.w3.org/2000/svg" xmlns:xlink="http://www.w3.org/1999/xlink">
	<desc>
			Created with Pixso.
	</desc>
	<defs/>
	<path id="Vector" d="M2.33 1.16C2.33 1.47 2.2 1.77 1.99 1.99C1.77 2.21 1.47 2.33 1.16 2.33C0.85 2.33 0.56 2.2 0.34 1.99C0.12 1.77 0 1.47 0 1.16C0 0.85 0.12 0.56 0.34 0.34C0.56 0.12 0.85 0 1.16 0C1.47 0 1.77 0.12 1.99 0.34C2.21 0.56 2.33 0.85 2.33 1.16ZM2.36 3.19L0.03 3.19L0.03 10.5L2.36 10.5L2.36 3.19ZM6.05 3.19L3.73 3.19L3.73 10.5L6.03 10.5L6.03 6.66C6.03 4.53 8.81 4.33 8.81 6.66L8.81 10.5L11.11 10.5L11.11 5.87C11.11 2.27 7 2.4 6.03 4.17L6.05 3.19Z" fill="#2B2B2B" fill-opacity="1.000000" fill-rule="nonzero"/>
</svg>
