<svg width="11.666504" height="11.666504" viewBox="0 0 11.6665 11.6665" fill="none" xmlns="http://www.w3.org/2000/svg" xmlns:xlink="http://www.w3.org/1999/xlink">
	<desc>
			Created with Pixso.
	</desc>
	<defs/>
	<path id="Vector" d="M10.49 5.58C10.44 4.66 10.12 3.78 9.57 3.04C9.4 3.22 9.22 3.39 9.03 3.55C8.45 4.03 7.8 4.43 7.1 4.72C7.2 4.92 7.29 5.12 7.37 5.31L7.37 5.31C7.39 5.36 7.41 5.42 7.43 5.47C8.31 5.37 9.25 5.41 10.15 5.53C10.27 5.54 10.38 5.56 10.49 5.58ZM5.01 1.23C5.58 2.03 6.11 2.87 6.58 3.72C7.3 3.44 7.89 3.09 8.36 2.69C8.53 2.56 8.68 2.41 8.83 2.25C7.99 1.55 6.93 1.16 5.83 1.16C5.56 1.16 5.28 1.18 5.01 1.23L5.01 1.23ZM1.31 4.66C1.71 4.65 2.1 4.63 2.5 4.59C3.46 4.5 4.4 4.34 5.34 4.11C4.85 3.26 4.32 2.44 3.76 1.64C3.16 1.94 2.63 2.36 2.21 2.88C1.78 3.41 1.48 4.01 1.31 4.66ZM2.2 8.77C2.43 8.43 2.73 8.06 3.12 7.66C3.97 6.79 4.97 6.11 6.13 5.74L6.16 5.73C6.07 5.52 5.98 5.33 5.89 5.15C4.82 5.46 3.69 5.65 2.56 5.76C2.02 5.81 1.52 5.83 1.16 5.83C1.16 6.9 1.53 7.94 2.2 8.77L2.2 8.77ZM7.58 10.15C7.36 9.02 7.04 7.91 6.63 6.82C5.46 7.25 4.53 7.87 3.81 8.61C3.52 8.9 3.26 9.22 3.04 9.57C3.85 10.17 4.82 10.5 5.83 10.5C6.43 10.5 7.02 10.38 7.58 10.16L7.58 10.15ZM8.67 9.53C9.58 8.83 10.21 7.81 10.42 6.69C10.22 6.64 9.97 6.59 9.69 6.55C9.08 6.46 8.45 6.45 7.83 6.53C8.18 7.51 8.46 8.51 8.67 9.53L8.67 9.53ZM5.83 11.66C2.61 11.66 0 9.05 0 5.83C0 2.61 2.61 0 5.83 0C9.05 0 11.66 2.61 11.66 5.83C11.66 9.05 9.05 11.66 5.83 11.66Z" fill="#2B2B2B" fill-opacity="1.000000" fill-rule="nonzero"/>
</svg>
