<svg width="11.666504" height="11.666504" viewBox="0 0 11.6665 11.6665" fill="none" xmlns="http://www.w3.org/2000/svg" xmlns:xlink="http://www.w3.org/1999/xlink">
	<desc>
			Created with Pixso.
	</desc>
	<defs/>
	<path id="Vector" d="M5.83 0C7.41 0 7.61 0 8.23 0.03C8.85 0.06 9.28 0.16 9.65 0.3C10.03 0.45 10.36 0.65 10.68 0.97C10.98 1.27 11.21 1.62 11.36 2.01C11.5 2.38 11.6 2.8 11.63 3.42C11.65 4.05 11.66 4.24 11.66 5.83C11.66 7.41 11.66 7.61 11.63 8.23C11.6 8.85 11.5 9.28 11.36 9.65C11.21 10.04 10.98 10.39 10.68 10.68C10.39 10.98 10.04 11.21 9.65 11.36C9.28 11.5 8.85 11.6 8.23 11.63C7.61 11.65 7.41 11.66 5.83 11.66C4.24 11.66 4.05 11.66 3.42 11.63C2.8 11.6 2.38 11.5 2.01 11.36C1.62 11.21 1.27 10.98 0.97 10.68C0.68 10.39 0.45 10.04 0.3 9.65C0.16 9.28 0.06 8.85 0.03 8.23C0 7.61 0 7.41 0 5.83C0 4.24 0 4.05 0.03 3.42C0.06 2.8 0.16 2.38 0.3 2.01C0.45 1.62 0.68 1.27 0.97 0.97C1.27 0.68 1.62 0.45 2.01 0.3C2.38 0.16 2.8 0.06 3.42 0.03C4.05 0 4.24 0 5.83 0ZM5.83 2.91C5.05 2.91 4.31 3.22 3.77 3.77C3.22 4.31 2.91 5.05 2.91 5.83C2.91 6.6 3.22 7.34 3.77 7.89C4.31 8.44 5.05 8.75 5.83 8.75C6.6 8.75 7.34 8.44 7.89 7.89C8.44 7.34 8.75 6.6 8.75 5.83C8.75 5.05 8.44 4.31 7.89 3.77C7.34 3.22 6.6 2.91 5.83 2.91ZM9.62 2.77C9.62 2.57 9.54 2.39 9.41 2.25C9.27 2.11 9.08 2.04 8.89 2.04C8.7 2.04 8.51 2.11 8.38 2.25C8.24 2.39 8.16 2.57 8.16 2.77C8.16 2.96 8.24 3.14 8.38 3.28C8.51 3.42 8.7 3.5 8.89 3.5C9.08 3.5 9.27 3.42 9.41 3.28C9.54 3.14 9.62 2.96 9.62 2.77ZM5.83 4.08C6.29 4.08 6.74 4.26 7.07 4.59C7.39 4.92 7.58 5.36 7.58 5.83C7.58 6.29 7.39 6.74 7.07 7.07C6.74 7.39 6.29 7.58 5.83 7.58C5.36 7.58 4.92 7.39 4.59 7.07C4.26 6.74 4.08 6.29 4.08 5.83C4.08 5.36 4.26 4.92 4.59 4.59C4.92 4.26 5.36 4.08 5.83 4.08Z" fill="#2B2B2B" fill-opacity="1.000000" fill-rule="nonzero"/>
</svg>
