<svg width="11.890625" height="9.667969" viewBox="0 0 11.8906 9.66797" fill="none" xmlns="http://www.w3.org/2000/svg" xmlns:xlink="http://www.w3.org/1999/xlink">
	<desc>
			Created with Pixso.
	</desc>
	<defs/>
	<path id="Vector" d="M11.89 1.14C11.44 1.34 10.97 1.47 10.48 1.53C10.99 1.22 11.37 0.74 11.56 0.18C11.08 0.46 10.55 0.66 10.01 0.77C9.64 0.38 9.15 0.12 8.62 0.03C8.09 -0.06 7.55 0.03 7.07 0.28C6.6 0.54 6.22 0.94 6 1.43C5.78 1.92 5.73 2.47 5.85 2.99C4.88 2.95 3.93 2.69 3.07 2.25C2.2 1.81 1.44 1.2 0.82 0.44C0.61 0.82 0.49 1.24 0.49 1.67C0.49 2.52 0.92 3.26 1.58 3.7C1.19 3.69 0.81 3.58 0.47 3.4L0.47 3.43C0.47 3.99 0.67 4.54 1.02 4.97C1.38 5.41 1.88 5.71 2.43 5.82C2.07 5.92 1.69 5.93 1.33 5.86C1.48 6.35 1.79 6.77 2.2 7.07C2.6 7.38 3.1 7.55 3.61 7.56C3.1 7.95 2.52 8.25 1.9 8.42C1.28 8.59 0.63 8.64 0 8.57C1.11 9.28 2.41 9.66 3.73 9.66C8.22 9.66 10.68 5.95 10.68 2.72C10.68 2.62 10.67 2.51 10.67 2.41C11.15 2.06 11.56 1.63 11.89 1.14L11.89 1.14Z" fill="#2B2B2B" fill-opacity="1.000000" fill-rule="nonzero"/>
</svg>
