<svg width="220.000000" height="126.000000" viewBox="0 0 220 126" fill="none" xmlns="http://www.w3.org/2000/svg" xmlns:xlink="http://www.w3.org/1999/xlink">
	<desc>
			Created with Pixso.
	</desc>
	<defs/>
	<rect id="Rectangle 2" width="46.000000" height="24.000000" fill="#FFB400" fill-opacity="1.000000"/>
	<path id="Age:" d="M7.86 14.9L6.76 18L5.38 18L9.39 7.09L10.75 7.09L14.75 18L13.37 18L12.27 14.9L7.86 14.9ZM10.02 8.81L8.28 13.73L11.85 13.73L10.11 8.81L10.02 8.81ZM23.13 18.23C23.13 20.34 21.55 21.23 19.59 21.23C17.76 21.23 16.76 20.45 16.25 19.59L17.25 18.89C17.58 19.34 18.1 20.13 19.59 20.13C20.91 20.13 21.87 19.51 21.87 18.15L21.87 16.48L21.76 16.48C21.49 16.93 20.97 17.87 19.38 17.87C17.4 17.87 15.9 16.42 15.9 13.86C15.9 11.35 17.33 9.71 19.4 9.71C21 9.71 21.51 10.69 21.78 11.11L21.91 11.11L21.91 9.81L23.13 9.81L23.13 18.23ZM32.12 16.1C31.73 17.34 30.52 18.17 28.86 18.17C26.49 18.17 25.04 16.48 25.04 13.97C25.04 11.45 26.52 9.71 28.73 9.71C30.43 9.71 32.25 10.75 32.25 13.8L32.25 14.33L26.31 14.33C26.37 16.08 27.38 17.04 28.86 17.04C29.84 17.04 30.58 16.61 30.9 15.76L32.12 16.1ZM36.04 11.05C36.04 11.58 35.61 12.01 35.08 12.01C34.55 12.01 34.12 11.58 34.12 11.05C34.12 10.52 34.55 10.09 35.08 10.09C35.61 10.09 36.04 10.52 36.04 11.05ZM17.16 13.84C17.16 15.55 17.97 16.74 19.55 16.74C21.06 16.74 21.89 15.65 21.89 13.84C21.89 12.07 21.08 10.84 19.55 10.84C17.95 10.84 17.16 12.18 17.16 13.84ZM28.73 10.84C27.29 10.84 26.39 11.97 26.31 13.25L30.97 13.25C30.97 11.86 30.09 10.84 28.73 10.84ZM36.04 17.12C36.04 17.65 35.61 18.08 35.08 18.08C34.55 18.08 34.12 17.65 34.12 17.12C34.12 16.59 34.55 16.16 35.08 16.16C35.61 16.16 36.04 16.59 36.04 17.12Z" fill="#2B2B2B" fill-opacity="1.000000" fill-rule="evenodd"/>
	<path id="24" d="M209.3 17L202.42 17L202.42 16.04L206.02 12.1C207.28 10.71 207.87 9.97 207.87 8.96C207.87 7.81 206.97 7.09 205.79 7.09C204.52 7.09 203.72 7.91 203.72 9.15L202.46 9.15C202.46 7.24 203.91 5.94 205.83 5.94C207.74 5.94 209.11 7.28 209.11 8.96C209.11 10.17 208.55 11.11 206.68 13.12L204.23 15.74L204.23 15.82L209.3 15.82L209.3 17ZM216.37 14.76L211.24 14.76L211.24 13.67L216.03 6.09L217.63 6.09L217.63 13.59L219.12 13.59L219.12 14.76L217.63 14.76L217.63 17L216.37 17L216.37 14.76ZM212.66 13.59L216.37 13.59L216.37 7.77L216.29 7.77L212.66 13.5L212.66 13.59Z" fill="#2B2B2B" fill-opacity="1.000000" fill-rule="evenodd"/>
	<rect id="Rectangle 3" y="34.000000" width="89.000000" height="24.000000" fill="#FFB400" fill-opacity="1.000000"/>
	<path id="Residence:" d="M33.84 40.6C33.84 41.07 33.44 41.45 32.95 41.45C32.46 41.45 32.05 41.07 32.05 40.6C32.05 40.13 32.46 39.75 32.95 39.75C33.44 39.75 33.84 40.13 33.84 40.6ZM7.64 51L6.32 51L6.32 40.09L10 40.09C12.56 40.09 13.71 41.5 13.71 43.43C13.71 44.88 13.06 46.01 11.67 46.49L14.14 51L12.6 51L10.3 46.73C10.21 46.73 10.12 46.73 10.02 46.73L7.64 46.73L7.64 51ZM41.34 49.74C41.07 50.19 40.53 51.17 38.96 51.17C36.91 51.17 35.48 49.53 35.48 46.93C35.48 44.35 36.91 42.71 38.98 42.71C40.58 42.71 41.07 43.69 41.34 44.11L41.45 44.11L41.45 40.09L42.71 40.09L42.71 51L41.49 51L41.49 49.74L41.34 49.74ZM7.64 41.26L7.64 45.54L9.98 45.54C11.73 45.54 12.41 44.74 12.41 43.43C12.41 42.12 11.73 41.26 9.96 41.26L7.64 41.26ZM22.42 49.1C22.04 50.34 20.83 51.17 19.16 51.17C16.8 51.17 15.35 49.48 15.35 46.97C15.35 44.45 16.82 42.71 19.04 42.71C20.74 42.71 22.55 43.75 22.55 46.8L22.55 47.33L16.61 47.33C16.67 49.08 17.69 50.04 19.16 50.04C20.15 50.04 20.89 49.61 21.21 48.76L22.42 49.1ZM27.37 42.71C28.99 42.71 29.87 43.48 30.27 44.64L29.13 44.96C28.92 44.4 28.46 43.79 27.37 43.79C26.37 43.79 25.62 44.3 25.62 45.01C25.62 45.64 26.06 45.96 27.02 46.2L28.24 46.5C29.7 46.86 30.41 47.57 30.41 48.71C30.41 50.13 29.12 51.17 27.22 51.17C25.55 51.17 24.4 50.42 24.11 49.04L25.3 48.74C25.52 49.61 26.17 50.06 27.2 50.06C28.37 50.06 29.12 49.48 29.12 48.78C29.12 48.22 28.72 47.82 27.9 47.63L26.54 47.31C25.03 46.96 24.36 46.2 24.36 45.07C24.36 43.69 25.64 42.71 27.37 42.71ZM51.87 49.1C51.49 50.34 50.27 51.17 48.61 51.17C46.24 51.17 44.79 49.48 44.79 46.97C44.79 44.45 46.27 42.71 48.48 42.71C50.19 42.71 52 43.75 52 46.8L52 47.33L46.06 47.33C46.12 49.08 47.13 50.04 48.61 50.04C49.6 50.04 50.34 49.61 50.65 48.76L51.87 49.1ZM57.26 43.84C56.06 43.84 55.17 44.64 55.17 46.07L55.17 51L53.91 51L53.91 42.81L55.13 42.81L55.13 44.09L55.24 44.09C55.62 43.26 56.39 42.71 57.62 42.71C59.28 42.71 60.39 43.71 60.39 45.79L60.39 51L59.14 51L59.14 45.88C59.14 44.6 58.43 43.84 57.26 43.84ZM69.23 48.61C69.02 50.06 67.83 51.17 66.02 51.17C63.71 51.17 62.31 49.4 62.31 46.95C62.31 44.45 63.78 42.71 66 42.71C67.72 42.71 69.02 43.73 69.23 45.26L67.98 45.26C67.79 44.52 67.12 43.84 66.02 43.84C64.55 43.84 63.57 45.05 63.57 46.9C63.57 48.8 64.53 50.04 66.02 50.04C67 50.04 67.74 49.5 67.98 48.61L69.23 48.61ZM77.76 49.1C77.37 50.34 76.16 51.17 74.5 51.17C72.13 51.17 70.68 49.48 70.68 46.97C70.68 44.45 72.15 42.71 74.37 42.71C76.07 42.71 77.89 43.75 77.89 46.8L77.89 47.33L71.95 47.33C72 49.08 73.02 50.04 74.5 50.04C75.48 50.04 76.22 49.61 76.54 48.76L77.76 49.1ZM33.57 51L32.31 51L32.31 42.81L33.57 42.81L33.57 51ZM81.68 44.05C81.68 44.58 81.25 45.01 80.72 45.01C80.19 45.01 79.76 44.58 79.76 44.05C79.76 43.52 80.19 43.09 80.72 43.09C81.25 43.09 81.68 43.52 81.68 44.05ZM19.04 43.84C17.6 43.84 16.7 44.97 16.61 46.25L21.27 46.25C21.27 44.86 20.4 43.84 19.04 43.84ZM36.74 46.9C36.74 48.65 37.55 50.04 39.13 50.04C40.64 50.04 41.47 48.76 41.47 46.9C41.47 45.07 40.66 43.84 39.13 43.84C37.53 43.84 36.74 45.18 36.74 46.9ZM48.48 43.84C47.04 43.84 46.14 44.97 46.06 46.25L50.72 46.25C50.72 44.86 49.84 43.84 48.48 43.84ZM74.37 43.84C72.93 43.84 72.03 44.97 71.95 46.25L76.61 46.25C76.61 44.86 75.73 43.84 74.37 43.84ZM81.68 50.12C81.68 50.65 81.25 51.08 80.72 51.08C80.19 51.08 79.76 50.65 79.76 50.12C79.76 49.59 80.19 49.16 80.72 49.16C81.25 49.16 81.68 49.59 81.68 50.12Z" fill="#2B2B2B" fill-opacity="1.000000" fill-rule="evenodd"/>
	<path id="BD" d="M204.72 51L200.78 51L200.78 40.09L204.59 40.09C206.87 40.09 207.94 41.39 207.94 42.98C207.94 44.39 207.11 45.01 206.17 45.26L206.17 45.37C207.17 45.43 208.36 46.37 208.36 48.1C208.36 49.74 207.3 51 204.72 51ZM219.1 45.52C219.1 48.93 217.23 51 213.9 51L210.54 51L210.54 40.09L214.05 40.09C217.23 40.09 219.1 42.13 219.1 45.52ZM202.1 41.26L202.1 44.88L204.55 44.88C205.74 44.88 206.68 44.14 206.68 42.98C206.68 42.03 206.04 41.26 204.59 41.26L202.1 41.26ZM211.85 41.26L211.85 49.82L213.82 49.82C216.52 49.82 217.82 48.18 217.82 45.52C217.82 42.88 216.52 41.26 213.96 41.26L211.85 41.26ZM202.1 46.03L202.1 49.82L204.72 49.82C206.44 49.82 207.11 49.06 207.11 48.1C207.11 46.99 206.21 46.03 204.78 46.03L202.1 46.03Z" fill="#2B2B2B" fill-opacity="1.000000" fill-rule="evenodd"/>
	<rect id="Rectangle 4" y="68.000000" width="85.000000" height="24.000000" fill="#FFB400" fill-opacity="1.000000"/>
	<path id="Freelance:" d="M7.64 85L6.32 85L6.32 74.09L12.86 74.09L12.86 75.26L7.64 75.26L7.64 78.95L12.37 78.95L12.37 80.12L7.64 80.12L7.64 85ZM38 74.09L39.25 74.09L39.25 85L38 85L38 74.09ZM16.2 85L14.94 85L14.94 76.81L16.16 76.81L16.16 78.05L16.24 78.05C16.54 77.24 17.39 76.69 18.38 76.69C18.56 76.69 18.89 76.7 19.04 76.71L19.04 77.99C18.95 77.96 18.6 77.9 18.27 77.9C17.08 77.9 16.2 78.71 16.2 79.82L16.2 85ZM27.22 83.1C26.83 84.34 25.62 85.17 23.96 85.17C21.59 85.17 20.14 83.48 20.14 80.97C20.14 78.45 21.61 76.71 23.83 76.71C25.53 76.71 27.35 77.75 27.35 80.8L27.35 81.33L21.41 81.33C21.46 83.08 22.48 84.04 23.96 84.04C24.94 84.04 25.68 83.61 26 82.76L27.22 83.1ZM35.95 83.1C35.57 84.34 34.36 85.17 32.69 85.17C30.33 85.17 28.88 83.48 28.88 80.97C28.88 78.45 30.35 76.71 32.57 76.71C34.27 76.71 36.08 77.75 36.08 80.8L36.08 81.33L30.14 81.33C30.2 83.08 31.22 84.04 32.69 84.04C33.68 84.04 34.42 83.61 34.74 82.76L35.95 83.1ZM46.39 83.89C46.14 84.42 45.39 85.19 43.97 85.19C42.41 85.19 41.17 84.27 41.17 82.67C41.17 80.8 42.83 80.46 44.35 80.26C45.84 80.07 46.46 80.13 46.46 79.52L46.46 79.48C46.46 78.43 45.89 77.81 44.73 77.81C43.53 77.81 42.88 78.45 42.6 79.05L41.41 78.62C42.05 77.13 43.45 76.71 44.69 76.71C45.74 76.71 47.72 77 47.72 79.6L47.72 85L46.46 85L46.46 83.89L46.39 83.89ZM53.36 77.84C52.16 77.84 51.27 78.64 51.27 80.07L51.27 85L50.02 85L50.02 76.81L51.23 76.81L51.23 78.09L51.34 78.09C51.72 77.26 52.49 76.71 53.73 76.71C55.38 76.71 56.49 77.71 56.49 79.79L56.49 85L55.24 85L55.24 79.88C55.24 78.6 54.53 77.84 53.36 77.84ZM65.33 82.61C65.12 84.06 63.93 85.17 62.12 85.17C59.82 85.17 58.41 83.4 58.41 80.95C58.41 78.45 59.88 76.71 62.1 76.71C63.82 76.71 65.12 77.73 65.33 79.26L64.08 79.26C63.89 78.52 63.23 77.84 62.12 77.84C60.65 77.84 59.67 79.05 59.67 80.9C59.67 82.8 60.63 84.04 62.12 84.04C63.1 84.04 63.84 83.5 64.08 82.61L65.33 82.61ZM73.86 83.1C73.47 84.34 72.26 85.17 70.6 85.17C68.23 85.17 66.78 83.48 66.78 80.97C66.78 78.45 68.26 76.71 70.47 76.71C72.17 76.71 73.99 77.75 73.99 80.8L73.99 81.33L68.05 81.33C68.11 83.08 69.12 84.04 70.6 84.04C71.58 84.04 72.32 83.61 72.64 82.76L73.86 83.1ZM77.78 78.05C77.78 78.58 77.35 79.01 76.82 79.01C76.29 79.01 75.86 78.58 75.86 78.05C75.86 77.52 76.29 77.09 76.82 77.09C77.35 77.09 77.78 77.52 77.78 78.05ZM23.83 77.84C22.39 77.84 21.49 78.97 21.41 80.25L26.07 80.25C26.07 78.86 25.19 77.84 23.83 77.84ZM32.57 77.84C31.13 77.84 30.23 78.97 30.14 80.25L34.8 80.25C34.8 78.86 33.93 77.84 32.57 77.84ZM70.47 77.84C69.03 77.84 68.13 78.97 68.05 80.25L72.71 80.25C72.71 78.86 71.83 77.84 70.47 77.84ZM42.43 82.74C42.43 83.61 43.16 84.06 44.16 84.06C45.65 84.06 46.46 83.06 46.46 82.03L46.46 80.88C46.24 81.14 44.82 81.29 44.29 81.35C43.3 81.48 42.43 81.78 42.43 82.74ZM77.78 84.12C77.78 84.65 77.35 85.08 76.82 85.08C76.29 85.08 75.86 84.65 75.86 84.12C75.86 83.59 76.29 83.16 76.82 83.16C77.35 83.16 77.78 83.59 77.78 84.12Z" fill="#2B2B2B" fill-opacity="1.000000" fill-rule="evenodd"/>
	<path id="Available" d="M185.5 74.6C185.5 75.07 185.1 75.45 184.61 75.45C184.12 75.45 183.71 75.07 183.71 74.6C183.71 74.13 184.12 73.75 184.61 73.75C185.1 73.75 185.5 74.13 185.5 74.6ZM158.73 81.9L157.63 85L156.25 85L160.25 74.09L161.62 74.09L165.62 85L164.24 85L163.14 81.9L158.73 81.9ZM187.52 74.09L188.78 74.09L188.78 85L187.52 85L187.52 74.09ZM200.92 85L199.71 85L199.71 74.09L200.97 74.09L200.97 78.11L201.07 78.11C201.35 77.69 201.84 76.71 203.44 76.71C205.51 76.71 206.93 78.35 206.93 80.93C206.93 83.53 205.51 85.17 203.46 85.17C201.88 85.17 201.35 84.19 201.07 83.74L200.92 83.74L200.92 85ZM208.85 74.09L210.11 74.09L210.11 85L208.85 85L208.85 74.09ZM160.89 75.81L159.14 80.73L162.72 80.73L160.97 75.81L160.89 75.81ZM180.34 83.89C180.09 84.42 179.34 85.19 177.92 85.19C176.36 85.19 175.12 84.27 175.12 82.67C175.12 80.8 176.78 80.46 178.3 80.26C179.79 80.07 180.41 80.13 180.41 79.52L180.41 79.48C180.41 78.43 179.84 77.81 178.68 77.81C177.48 77.81 176.83 78.45 176.55 79.05L175.36 78.62C176 77.13 177.4 76.71 178.64 76.71C179.68 76.71 181.67 77 181.67 79.6L181.67 85L180.41 85L180.41 83.89L180.34 83.89ZM195.92 83.89C195.66 84.42 194.92 85.19 193.49 85.19C191.93 85.19 190.7 84.27 190.7 82.67C190.7 80.8 192.36 80.46 193.87 80.26C195.37 80.07 195.98 80.13 195.98 79.52L195.98 79.48C195.98 78.43 195.41 77.81 194.26 77.81C193.06 77.81 192.4 78.45 192.13 79.05L190.93 78.62C191.57 77.13 192.98 76.71 194.21 76.71C195.26 76.71 197.24 77 197.24 79.6L197.24 85L195.98 85L195.98 83.89L195.92 83.89ZM219.1 83.1C218.72 84.34 217.5 85.17 215.84 85.17C213.48 85.17 212.03 83.48 212.03 80.97C212.03 78.45 213.5 76.71 215.71 76.71C217.42 76.71 219.23 77.75 219.23 80.8L219.23 81.33L213.29 81.33C213.35 83.08 214.37 84.04 215.84 84.04C216.83 84.04 217.57 83.61 217.88 82.76L219.1 83.1ZM172.48 76.81L173.84 76.81L170.82 85L169.54 85L166.52 76.81L167.88 76.81L170.14 83.33L170.22 83.33L172.48 76.81ZM185.22 85L183.96 85L183.96 76.81L185.22 76.81L185.22 85ZM203.29 77.84C201.76 77.84 200.95 79.07 200.95 80.9C200.95 82.76 201.78 84.04 203.29 84.04C204.87 84.04 205.68 82.65 205.68 80.9C205.68 79.18 204.89 77.84 203.29 77.84ZM215.71 77.84C214.27 77.84 213.37 78.97 213.29 80.25L217.95 80.25C217.95 78.86 217.08 77.84 215.71 77.84ZM176.38 82.74C176.38 83.61 177.11 84.06 178.11 84.06C179.6 84.06 180.41 83.06 180.41 82.03L180.41 80.88C180.19 81.14 178.77 81.29 178.23 81.35C177.25 81.48 176.38 81.78 176.38 82.74ZM191.96 82.74C191.96 83.61 192.68 84.06 193.68 84.06C195.17 84.06 195.98 83.06 195.98 82.03L195.98 80.88C195.77 81.14 194.34 81.29 193.81 81.35C192.83 81.48 191.96 81.78 191.96 82.74Z" fill="#7EB942" fill-opacity="1.000000" fill-rule="evenodd"/>
	<rect id="Rectangle 5" y="102.000000" width="75.000000" height="24.000000" fill="#FFB400" fill-opacity="1.000000"/>
	<path id="Address:" d="M7.86 115.9L6.76 119L5.38 119L9.39 108.09L10.75 108.09L14.75 119L13.37 119L12.27 115.9L7.86 115.9ZM21.76 117.74C21.49 118.19 20.95 119.17 19.38 119.17C17.33 119.17 15.9 117.53 15.9 114.93C15.9 112.35 17.33 110.71 19.4 110.71C21 110.71 21.49 111.69 21.76 112.11L21.87 112.11L21.87 108.09L23.13 108.09L23.13 119L21.91 119L21.91 117.74L21.76 117.74ZM31.07 117.74C30.8 118.19 30.26 119.17 28.69 119.17C26.64 119.17 25.21 117.53 25.21 114.93C25.21 112.35 26.64 110.71 28.71 110.71C30.31 110.71 30.8 111.69 31.07 112.11L31.18 112.11L31.18 108.09L32.44 108.09L32.44 119L31.22 119L31.22 117.74L31.07 117.74ZM10.02 109.81L8.28 114.73L11.85 114.73L10.11 109.81L10.02 109.81ZM36.17 119L34.91 119L34.91 110.81L36.12 110.81L36.12 112.05L36.21 112.05C36.51 111.24 37.36 110.69 38.34 110.69C38.53 110.69 38.86 110.7 39 110.71L39 111.99C38.92 111.96 38.57 111.9 38.23 111.9C37.04 111.9 36.17 112.71 36.17 113.82L36.17 119ZM47.18 117.1C46.8 118.34 45.59 119.17 43.92 119.17C41.56 119.17 40.11 117.48 40.11 114.97C40.11 112.45 41.58 110.71 43.79 110.71C45.5 110.71 47.31 111.75 47.31 114.8L47.31 115.33L41.37 115.33C41.43 117.08 42.45 118.04 43.92 118.04C44.91 118.04 45.65 117.61 45.97 116.76L47.18 117.1ZM52.12 110.71C53.75 110.71 54.63 111.48 55.02 112.65L53.89 112.96C53.68 112.4 53.22 111.79 52.12 111.79C51.12 111.79 50.38 112.3 50.38 113.01C50.38 113.64 50.82 113.96 51.78 114.2L53 114.5C54.46 114.86 55.17 115.58 55.17 116.71C55.17 118.13 53.88 119.17 51.98 119.17C50.3 119.17 49.16 118.42 48.86 117.04L50.06 116.74C50.28 117.61 50.93 118.06 51.96 118.06C53.13 118.06 53.87 117.48 53.87 116.78C53.87 116.22 53.48 115.82 52.66 115.63L51.3 115.31C49.79 114.96 49.12 114.2 49.12 113.07C49.12 111.69 50.4 110.71 52.12 110.71ZM59.96 110.71C61.59 110.71 62.47 111.48 62.87 112.65L61.73 112.96C61.52 112.4 61.06 111.79 59.96 111.79C58.97 111.79 58.22 112.3 58.22 113.01C58.22 113.64 58.66 113.96 59.62 114.2L60.84 114.5C62.3 114.86 63.01 115.58 63.01 116.71C63.01 118.13 61.72 119.17 59.82 119.17C58.14 119.17 57 118.42 56.71 117.04L57.9 116.74C58.12 117.61 58.77 118.06 59.8 118.06C60.97 118.06 61.72 117.48 61.72 116.78C61.72 116.22 61.32 115.82 60.5 115.63L59.14 115.31C57.63 114.96 56.96 114.2 56.96 113.07C56.96 111.69 58.24 110.71 59.96 110.71ZM66.78 112.05C66.78 112.58 66.35 113.01 65.82 113.01C65.3 113.01 64.87 112.58 64.87 112.05C64.87 111.52 65.3 111.09 65.82 111.09C66.35 111.09 66.78 111.52 66.78 112.05ZM17.16 114.9C17.16 116.65 17.97 118.04 19.55 118.04C21.06 118.04 21.89 116.76 21.89 114.9C21.89 113.07 21.08 111.84 19.55 111.84C17.95 111.84 17.16 113.18 17.16 114.9ZM26.47 114.9C26.47 116.65 27.28 118.04 28.86 118.04C30.37 118.04 31.2 116.76 31.2 114.9C31.2 113.07 30.39 111.84 28.86 111.84C27.26 111.84 26.47 113.18 26.47 114.9ZM43.79 111.84C42.36 111.84 41.45 112.97 41.37 114.25L46.03 114.25C46.03 112.86 45.16 111.84 43.79 111.84ZM66.78 118.12C66.78 118.65 66.35 119.08 65.82 119.08C65.3 119.08 64.87 118.65 64.87 118.12C64.87 117.59 65.3 117.16 65.82 117.16C66.35 117.16 66.78 117.59 66.78 118.12Z" fill="#2B2B2B" fill-opacity="1.000000" fill-rule="evenodd"/>
	<path id="Dhaka,Bangladesh" d="M98.06 113.52C98.06 116.93 96.18 119 92.86 119L89.49 119L89.49 108.09L93.01 108.09C96.18 108.09 98.06 110.13 98.06 113.52ZM103.51 111.84C102.27 111.84 101.36 112.65 101.36 114.07L101.36 119L100.1 119L100.1 108.09L101.36 108.09L101.36 112.09L101.47 112.09C101.85 111.25 102.58 110.71 103.87 110.71C105.55 110.71 106.66 111.69 106.66 113.8L106.66 119L105.41 119L105.41 113.88C105.41 112.58 104.69 111.84 103.51 111.84ZM118.68 119L117.42 119L117.42 108.09L118.68 108.09L118.68 114.46L118.83 114.46L122.41 110.81L123.96 110.81L120.51 114.31L124.22 119L122.62 119L119.56 115.12L118.68 115.93L118.68 119ZM142.35 119L138.41 119L138.41 108.09L142.22 108.09C144.51 108.09 145.57 109.39 145.57 110.98C145.57 112.39 144.74 113.01 143.8 113.26L143.8 113.37C144.8 113.43 146 114.37 146 116.1C146 117.74 144.93 119 142.35 119ZM174.38 108.09L175.63 108.09L175.63 119L174.38 119L174.38 108.09ZM191.87 117.74C191.59 118.19 191.06 119.17 189.48 119.17C187.44 119.17 186.01 117.53 186.01 114.93C186.01 112.35 187.44 110.71 189.51 110.71C191.1 110.71 191.59 111.69 191.87 112.11L191.98 112.11L191.98 108.09L193.23 108.09L193.23 119L192.02 119L192.02 117.74L191.87 117.74ZM215.69 111.84C214.45 111.84 213.54 112.65 213.54 114.07L213.54 119L212.28 119L212.28 108.09L213.54 108.09L213.54 112.09L213.65 112.09C214.03 111.25 214.76 110.71 216.05 110.71C217.73 110.71 218.84 111.69 218.84 113.8L218.84 119L217.59 119L217.59 113.88C217.59 112.58 216.87 111.84 215.69 111.84ZM90.81 109.26L90.81 117.82L92.77 117.82C95.48 117.82 96.78 116.18 96.78 113.52C96.78 110.88 95.48 109.26 92.92 109.26L90.81 109.26ZM139.73 109.26L139.73 112.88L142.18 112.88C143.37 112.88 144.31 112.14 144.31 110.98C144.31 110.03 143.67 109.26 142.22 109.26L139.73 109.26ZM113.8 117.89C113.55 118.42 112.8 119.19 111.37 119.19C109.82 119.19 108.58 118.27 108.58 116.67C108.58 114.8 110.24 114.46 111.76 114.26C113.25 114.07 113.86 114.13 113.86 113.52L113.86 113.48C113.86 112.43 113.3 111.81 112.14 111.81C110.94 111.81 110.29 112.45 110.01 113.05L108.81 112.62C109.46 111.13 110.86 110.71 112.1 110.71C113.14 110.71 115.12 111 115.12 113.6L115.12 119L113.86 119L113.86 117.89L113.8 117.89ZM130.42 117.89C130.17 118.42 129.42 119.19 127.99 119.19C126.44 119.19 125.2 118.27 125.2 116.67C125.2 114.8 126.86 114.46 128.37 114.26C129.87 114.07 130.48 114.13 130.48 113.52L130.48 113.48C130.48 112.43 129.92 111.81 128.76 111.81C127.56 111.81 126.91 112.45 126.63 113.05L125.43 112.62C126.08 111.13 127.48 110.71 128.72 110.71C129.76 110.71 131.74 111 131.74 113.6L131.74 119L130.48 119L130.48 117.89L130.42 117.89ZM152.84 117.89C152.58 118.42 151.83 119.19 150.41 119.19C148.85 119.19 147.61 118.27 147.61 116.67C147.61 114.8 149.27 114.46 150.79 114.26C152.28 114.07 152.9 114.13 152.9 113.52L152.9 113.48C152.9 112.43 152.33 111.81 151.17 111.81C149.98 111.81 149.32 112.45 149.04 113.05L147.85 112.62C148.49 111.13 149.9 110.71 151.13 110.71C152.18 110.71 154.16 111 154.16 113.6L154.16 119L152.9 119L152.9 117.89L152.84 117.89ZM159.81 111.84C158.6 111.84 157.71 112.65 157.71 114.07L157.71 119L156.46 119L156.46 110.81L157.67 110.81L157.67 112.09L157.78 112.09C158.16 111.26 158.93 110.71 160.17 110.71C161.82 110.71 162.94 111.71 162.94 113.8L162.94 119L161.68 119L161.68 113.88C161.68 112.6 160.97 111.84 159.81 111.84ZM172.08 119.23C172.08 121.34 170.5 122.23 168.54 122.23C166.71 122.23 165.71 121.45 165.2 120.59L166.2 119.89C166.53 120.34 167.05 121.13 168.54 121.13C169.86 121.13 170.82 120.51 170.82 119.15L170.82 117.48L170.71 117.48C170.44 117.93 169.92 118.87 168.33 118.87C166.35 118.87 164.85 117.42 164.85 114.86C164.85 112.35 166.28 110.71 168.35 110.71C169.95 110.71 170.46 111.69 170.73 112.11L170.86 112.11L170.86 110.81L172.08 110.81L172.08 119.23ZM182.77 117.89C182.52 118.42 181.77 119.19 180.34 119.19C178.79 119.19 177.55 118.27 177.55 116.67C177.55 114.8 179.21 114.46 180.73 114.26C182.22 114.07 182.84 114.13 182.84 113.52L182.84 113.48C182.84 112.43 182.27 111.81 181.11 111.81C179.91 111.81 179.26 112.45 178.98 113.05L177.79 112.62C178.43 111.13 179.83 110.71 181.07 110.71C182.11 110.71 184.09 111 184.09 113.6L184.09 119L182.84 119L182.84 117.89L182.77 117.89ZM202.4 117.1C202.01 118.34 200.8 119.17 199.14 119.17C196.77 119.17 195.32 117.48 195.32 114.97C195.32 112.45 196.79 110.71 199.01 110.71C200.71 110.71 202.52 111.75 202.52 114.8L202.52 115.33L196.58 115.33C196.64 117.08 197.66 118.04 199.14 118.04C200.12 118.04 200.86 117.61 201.18 116.76L202.4 117.1ZM207.34 110.71C208.96 110.71 209.84 111.48 210.24 112.65L209.11 112.96C208.89 112.4 208.44 111.79 207.34 111.79C206.34 111.79 205.59 112.3 205.59 113.01C205.59 113.64 206.03 113.96 207 114.2L208.21 114.5C209.67 114.86 210.38 115.58 210.38 116.71C210.38 118.13 209.09 119.17 207.19 119.17C205.52 119.17 204.37 118.42 204.08 117.04L205.27 116.74C205.5 117.61 206.14 118.06 207.17 118.06C208.34 118.06 209.09 117.48 209.09 116.78C209.09 116.22 208.7 115.82 207.87 115.63L206.51 115.31C205 114.96 204.33 114.2 204.33 113.07C204.33 111.69 205.61 110.71 207.34 110.71ZM166.11 114.84C166.11 116.55 166.92 117.74 168.5 117.74C170.01 117.74 170.84 116.65 170.84 114.84C170.84 113.07 170.03 111.84 168.5 111.84C166.9 111.84 166.11 113.18 166.11 114.84ZM187.27 114.9C187.27 116.65 188.08 118.04 189.65 118.04C191.17 118.04 192 116.76 192 114.9C192 113.07 191.19 111.84 189.65 111.84C188.06 111.84 187.27 113.18 187.27 114.9ZM199.01 111.84C197.57 111.84 196.67 112.97 196.58 114.25L201.25 114.25C201.25 112.86 200.37 111.84 199.01 111.84ZM139.73 114.03L139.73 117.82L142.35 117.82C144.08 117.82 144.74 117.06 144.74 116.1C144.74 114.99 143.84 114.03 142.42 114.03L139.73 114.03ZM109.84 116.74C109.84 117.61 110.57 118.06 111.57 118.06C113.06 118.06 113.86 117.06 113.86 116.03L113.86 114.88C113.65 115.14 112.22 115.29 111.69 115.35C110.71 115.48 109.84 115.78 109.84 116.74ZM126.46 116.74C126.46 117.61 127.18 118.06 128.18 118.06C129.67 118.06 130.48 117.06 130.48 116.03L130.48 114.88C130.27 115.14 128.84 115.29 128.31 115.35C127.33 115.48 126.46 115.78 126.46 116.74ZM148.87 116.74C148.87 117.61 149.6 118.06 150.6 118.06C152.09 118.06 152.9 117.06 152.9 116.03L152.9 114.88C152.69 115.14 151.26 115.29 150.73 115.35C149.75 115.48 148.87 115.78 148.87 116.74ZM178.81 116.74C178.81 117.61 179.54 118.06 180.54 118.06C182.03 118.06 182.84 117.06 182.84 116.03L182.84 114.88C182.62 115.14 181.19 115.29 180.66 115.35C179.68 115.48 178.81 115.78 178.81 116.74ZM134.56 117.51L135.92 117.51L135.83 118.08C135.65 119.29 135.11 120.93 134.85 121.66L133.89 121.66C134.03 120.98 134.34 119.54 134.49 118.1L134.56 117.51Z" fill="#2B2B2B" fill-opacity="1.000000" fill-rule="evenodd"/>
</svg>
