<svg width="220.000000" height="25.000000" viewBox="0 0 220 25" fill="none" xmlns="http://www.w3.org/2000/svg" xmlns:xlink="http://www.w3.org/1999/xlink">
	<desc>
			Created with Pixso.
	</desc>
	<defs/>
	<rect id="Rectangle 2" width="46.000000" height="24.000000" fill="#FFB400" fill-opacity="1.000000"/>
	<path id="Age:" d="M7.86 14.9L6.76 18L5.38 18L9.39 7.09L10.75 7.09L14.75 18L13.37 18L12.27 14.9L7.86 14.9ZM10.02 8.81L8.28 13.73L11.85 13.73L10.11 8.81L10.02 8.81ZM23.13 18.23C23.13 20.34 21.55 21.23 19.59 21.23C17.76 21.23 16.76 20.45 16.25 19.59L17.25 18.89C17.58 19.34 18.1 20.13 19.59 20.13C20.91 20.13 21.87 19.51 21.87 18.15L21.87 16.48L21.76 16.48C21.49 16.93 20.97 17.87 19.38 17.87C17.4 17.87 15.9 16.42 15.9 13.86C15.9 11.35 17.33 9.71 19.4 9.71C21 9.71 21.51 10.69 21.78 11.11L21.91 11.11L21.91 9.81L23.13 9.81L23.13 18.23ZM32.12 16.1C31.73 17.34 30.52 18.17 28.86 18.17C26.49 18.17 25.04 16.48 25.04 13.97C25.04 11.45 26.52 9.71 28.73 9.71C30.43 9.71 32.25 10.75 32.25 13.8L32.25 14.33L26.31 14.33C26.37 16.08 27.38 17.04 28.86 17.04C29.84 17.04 30.58 16.61 30.9 15.76L32.12 16.1ZM36.04 11.05C36.04 11.58 35.61 12.01 35.08 12.01C34.55 12.01 34.12 11.58 34.12 11.05C34.12 10.52 34.55 10.09 35.08 10.09C35.61 10.09 36.04 10.52 36.04 11.05ZM17.16 13.84C17.16 15.55 17.97 16.74 19.55 16.74C21.06 16.74 21.89 15.65 21.89 13.84C21.89 12.07 21.08 10.84 19.55 10.84C17.95 10.84 17.16 12.18 17.16 13.84ZM28.73 10.84C27.29 10.84 26.39 11.97 26.31 13.25L30.97 13.25C30.97 11.86 30.09 10.84 28.73 10.84ZM36.04 17.12C36.04 17.65 35.61 18.08 35.08 18.08C34.55 18.08 34.12 17.65 34.12 17.12C34.12 16.59 34.55 16.16 35.08 16.16C35.61 16.16 36.04 16.59 36.04 17.12Z" fill="#2B2B2B" fill-opacity="1.000000" fill-rule="evenodd"/>
	<path id="24" d="M209.3 17L202.42 17L202.42 16.04L206.02 12.1C207.28 10.71 207.87 9.97 207.87 8.96C207.87 7.81 206.97 7.09 205.79 7.09C204.52 7.09 203.72 7.91 203.72 9.15L202.46 9.15C202.46 7.24 203.91 5.94 205.83 5.94C207.74 5.94 209.11 7.28 209.11 8.96C209.11 10.17 208.55 11.11 206.68 13.12L204.23 15.74L204.23 15.82L209.3 15.82L209.3 17ZM216.37 14.76L211.24 14.76L211.24 13.67L216.03 6.09L217.63 6.09L217.63 13.59L219.12 13.59L219.12 14.76L217.63 14.76L217.63 17L216.37 17L216.37 14.76ZM212.66 13.59L216.37 13.59L216.37 7.77L216.29 7.77L212.66 13.5L212.66 13.59Z" fill="#2B2B2B" fill-opacity="1.000000" fill-rule="evenodd"/>
</svg>
